<svg width="360" height="360" version="1.1" viewBox="0 0 360 360" xmlns="http://www.w3.org/2000/svg">
 <g transform="translate(9.5726 9.5724)">
  <path d="m171.9 241.57 0.011-4e-3c-23.918-25.017-5.88-66.318 28.274-66.416 21.748-0.062 39.397 17.549 39.397 39.282 0-32.639 37.567-50.94 63.265-31.033l7.928-8.24-0.023-9e-3c15.06-15.752 23.882-37.518 22.434-61.346-2.587-42.567-38.421-76.259-81.067-76.381-45.098-0.129-81.698 36.391-81.698 81.459 0-45.068-36.6-81.588-81.698-81.459-42.646 0.122-78.48 33.814-81.067 76.381-1.448 23.829 7.374 45.594 22.434 61.346l-0.022 9e-3 111.64 116.04c15.673 16.292 41.747 16.292 57.421 0l10.259-10.664z" fill="#ff7876"/>
  <path d="m278.98 175.15c-21.748-0.062-39.397 17.549-39.397 39.282 0-21.733-17.649-39.344-39.397-39.282-34.201 0.098-52.162 41.431-28.274 66.416l-0.011 4e-3 53.837 55.96c7.558 7.856 20.132 7.856 27.69 0l53.837-55.96-0.011-4e-3c23.918-25.017 5.88-66.318-28.274-66.416z" fill="#ffdb77"/>
  <g fill="#414042">
   <path d="m88.81 59.922h-0.022c-30.742 0.089-56.803 24.462-58.673 55.247-0.251 4.135 2.897 7.69 7.032 7.941 4.238 0.241 7.695-2.981 7.941-7.031 1.387-22.824 20.859-41.093 43.743-41.157 4.142-0.012 7.49-3.379 7.479-7.521-0.012-4.135-3.368-7.479-7.5-7.479z"/>
   <path d="m313.56 183.09c18.996-19.747 28.786-42.274 27.117-69.737-2.835-46.647-41.723-83.293-88.531-83.427h-0.262c-37.208 0-68.024 22.605-81.458 53.087-13.487-30.606-44.367-53.087-81.458-53.087h-0.262c-46.808 0.133-85.696 36.779-88.531 83.426-1.54 25.342 7.415 49.189 24.493 67.01l111.64 116.04c9.008 9.362 21.124 14.519 34.116 14.519 22.158 0 33.393-13.77 38.968-19.565l10.942 11.373c10.525 10.939 27.982 10.931 38.499 0 0.24-0.25 53.928-56.042 54.151-56.307 17.027-18.142 16.596-45.647 0.573-63.337zm-143.13 112.84c-8.875 0-17.152-3.522-23.306-9.919-149.13-155.01-92.621-96.258-111.6-116.04-14.403-15.064-21.637-34.849-20.369-55.708 2.356-38.77 34.686-69.226 73.602-69.337h0.218c40.876 0 73.959 33.079 73.959 73.96 0 4.143 3.358 7.5 7.5 7.5 4.143 0 7.5-3.357 7.5-7.5 0-40.879 33.079-73.96 73.959-73.96h0.218c38.916 0.111 71.245 30.567 73.602 69.337 1.268 20.859-5.966 40.643-20.368 55.708 0 0 0.123-0.097-3.541 3.712-21.415-12.088-48.623-5.563-62.208 15.316-8.409-12.924-22.838-21.346-39.283-21.346h-0.136c-40.517 0.117-62.071 48.846-33.983 78.773 0.101 0.118 0.206 0.234 0.314 0.348l32.489 33.769c-5.62 5.841-13.038 15.383-28.563 15.383zm131.15-59.254-53.551 55.662c-4.618 4.798-12.268 4.793-16.882 0-9.503-9.878-18.527-19.258-53.55-55.661-0.084-0.097-0.171-0.192-0.26-0.285-19.257-20.143-4.948-53.652 22.875-53.733h0.092c17.57 0 31.784 14.217 31.784 31.782 0 4.143 3.357 7.5 7.5 7.5s7.5-3.357 7.5-7.5c0-17.376 13.988-31.782 31.874-31.782 25.807 0.074 43.04 30.507 22.618 54.017z"/>
  </g>
 </g>
</svg>
