<svg width="100px" height="100px" version="1.1" viewBox="0 0 100 100" xmlns="http://www.w3.org/2000/svg">
 <path d="m82.778 81.614h-63.714c-3.379 0-6.143-2.764-6.143-6.143v-26.714c0-3.379 2.764-6.143 6.143-6.143h63.714c3.379 0 6.143 2.764 6.143 6.143v26.714c0 3.379-2.764 6.143-6.143 6.143z" fill="#f0648a"/>
 <path d="m82.779 82.614h-63.715c-3.938 0-7.143-3.205-7.143-7.143v-26.714c0-3.938 3.204-7.143 7.143-7.143h63.715c3.938 0 7.143 3.205 7.143 7.143v26.714c-1e-3 3.939-3.205 7.143-7.143 7.143zm-63.715-39c-2.836 0-5.143 2.307-5.143 5.143v26.714c0 2.836 2.307 5.143 5.143 5.143h63.715c2.836 0 5.143-2.307 5.143-5.143v-26.714c0-2.836-2.307-5.143-5.143-5.143h-63.715z"/>
 <path d="m91.546 53.614h-81.083c-0.298 0-0.542-0.244-0.542-0.542v-10.458c0-2.75 2.25-5 5-5h72c2.75 0 5 2.25 5 5v10.625c0 0.206-0.168 0.375-0.375 0.375z" fill="#f37e98"/>
 <path d="m91.546 54.614h-81.083c-0.851 0-1.542-0.691-1.542-1.542v-10.458c0-3.309 2.691-6 6-6h72c3.309 0 6 2.691 6 6v10.625c0 0.758-0.617 1.375-1.375 1.375zm-80.625-2h80v-10c0-2.206-1.794-4-4-4h-72c-2.206 0-4 1.794-4 4v10z"/>
 <path d="m30.421 37.114v-1.5c0-0.825-0.675-1.5-1.5-1.5h-9c-0.825 0-1.5 0.675-1.5 1.5v1.5" fill="#7c8b9f"/>
 <path d="m30.421 37.614c-0.276 0-0.5-0.224-0.5-0.5v-1.5c0-0.551-0.448-1-1-1h-9c-0.552 0-1 0.449-1 1v1.5c0 0.276-0.224 0.5-0.5 0.5s-0.5-0.224-0.5-0.5v-1.5c0-1.103 0.897-2 2-2h9c1.103 0 2 0.897 2 2v1.5c0 0.277-0.223 0.5-0.5 0.5z"/>
 <path d="m83.421 37.114v-1.5c0-0.825-0.675-1.5-1.5-1.5h-9c-0.825 0-1.5 0.675-1.5 1.5v1.5" fill="#7c8b9f"/>
 <path d="m83.421 37.614c-0.276 0-0.5-0.224-0.5-0.5v-1.5c0-0.551-0.448-1-1-1h-9c-0.552 0-1 0.449-1 1v1.5c0 0.276-0.224 0.5-0.5 0.5s-0.5-0.224-0.5-0.5v-1.5c0-1.103 0.897-2 2-2h9c1.103 0 2 0.897 2 2v1.5c0 0.277-0.223 0.5-0.5 0.5z"/>
 <path d="m27.672 34.114c0.744-3.893 4.238-8 8.509-8h29.436c4.271 0 7.827 4.107 8.571 8h5.715c-0.784-6.942-6.925-13-14.367-13h-29.274c-7.442 0-13.584 6.058-14.367 13h5.777z" fill="#8f9eb6"/>
 <path d="M79.903 34.614h-5.715c-.24 0-.446-.17-.491-.406-.702-3.667-4.116-7.594-8.08-7.594H36.181c-4.056 0-7.319 3.942-8.018 7.594-.045.236-.251.406-.491.406h-5.778c-.143 0-.278-.061-.373-.167-.095-.106-.14-.248-.124-.389.852-7.539 7.382-13.444 14.865-13.444h29.272c7.483 0 14.014 5.905 14.865 13.444.016.142-.029.283-.124.389C80.181 34.554 80.045 34.614 79.903 34.614zM74.592 33.614h4.739c-1.043-6.667-7.115-12-13.797-12H36.262c-6.682 0-12.754 5.333-13.797 12h4.803c.932-3.923 4.499-8 8.913-8h29.436C70.067 25.614 73.659 29.691 74.592 33.614zM78.594 81.334c-.002 0-.005 0-.008 0-.275-.004-.496-.231-.492-.507.094-6.206 4.969-11.254 10.867-11.254l.083.504-.009.5c-.01 0-.059-.003-.068-.003h-.001c-5.361 0-9.787 4.606-9.872 10.268C79.09 81.116 78.867 81.334 78.594 81.334zM23.784 81.136c-.276 0-.503-.182-.503-.458 0-.015.003-.071.004-.085.001-5.415-4.605-9.892-10.269-9.979-.276-.004-.496-.231-.492-.508.004-.276.271-.481.508-.492 6.205.095 11.254 5.02 11.254 10.98C24.286 80.871 24.059 81.136 23.784 81.136z"/>
 <path d="m25.447 50.114h9.948l-1.974 4v4h-6l0.031-4z" fill="#b3b2c3"/>
 <path d="m33.421 58.614h-6c-0.133 0-0.261-0.053-0.354-0.148-0.095-0.095-0.146-0.223-0.146-0.356l0.03-3.879-1.951-3.893c-0.077-0.155-0.069-0.339 0.021-0.487 0.092-0.147 0.252-0.237 0.426-0.237h9.947c0.173 0 0.333 0.089 0.425 0.236 0.091 0.147 0.1 0.331 0.023 0.485l-1.922 3.896v3.883c1e-3 0.277-0.222 0.5-0.499 0.5zm-5.496-1h4.996v-3.5c0-0.077 0.018-0.152 0.052-0.221l1.617-3.279h-8.333l1.643 3.276c0.035 0.071 0.054 0.149 0.053 0.228l-0.028 3.496z"/>
 <path d="m67.447 50.114h9.948l-1.974 4v4h-6l0.031-4z" fill="#b3b2c3"/>
 <path d="m75.421 58.614h-6c-0.133 0-0.261-0.053-0.354-0.148-0.095-0.095-0.146-0.223-0.146-0.356l0.03-3.879-1.951-3.893c-0.077-0.155-0.069-0.339 0.021-0.487 0.092-0.147 0.252-0.237 0.426-0.237h9.947c0.173 0 0.333 0.089 0.425 0.236 0.091 0.147 0.1 0.331 0.023 0.485l-1.922 3.896v3.883c1e-3 0.277-0.222 0.5-0.499 0.5zm-5.496-1h4.996v-3.5c0-0.077 0.018-0.152 0.052-0.221l1.617-3.279h-8.333l1.643 3.276c0.035 0.071 0.054 0.149 0.053 0.228l-0.028 3.496z"/>
 <path d="m72.421 58.614c-0.276 0-0.5-0.224-0.5-0.5v-2c0-0.276 0.224-0.5 0.5-0.5s0.5 0.224 0.5 0.5v2c0 0.277-0.223 0.5-0.5 0.5zm-42 0c-0.276 0-0.5-0.224-0.5-0.5v-2c0-0.276 0.224-0.5 0.5-0.5s0.5 0.224 0.5 0.5v2c0 0.277-0.223 0.5-0.5 0.5zm46-15h-65c-0.276 0-0.5-0.224-0.5-0.5s0.224-0.5 0.5-0.5h65c0.276 0 0.5 0.224 0.5 0.5s-0.223 0.5-0.5 0.5zm9 0h-6c-0.276 0-0.5-0.224-0.5-0.5s0.224-0.5 0.5-0.5h6c0.276 0 0.5 0.224 0.5 0.5s-0.223 0.5-0.5 0.5zm6 0h-4c-0.276 0-0.5-0.224-0.5-0.5s0.224-0.5 0.5-0.5h4c0.276 0 0.5 0.224 0.5 0.5s-0.223 0.5-0.5 0.5z"/>
</svg>
